<?xml version="1.0" encoding="utf-8"?>
<?xml-stylesheet type="text/xsl" href="rss1.xsl"?>
<rss version="2.0" xmlns:atom="http://www.w3.org/2005/Atom" xmlns:content="http://purl.org/rss/1.0/modules/content/" xmlns:dc="http://purl.org/dc/elements/1.1/" xmlns:media="http://search.yahoo.com/mrss/">
<channel>
 <title>Getty</title>
 <link>http://www.gettyimg.com/</link>
 <atom:link href="http://www.gettyimg.com/" rel="self" type="application/rss+xml" />

 
                <item>
                <title><![CDATA[【Albums (lossless)】FLAC - Various Artists - NOW That's What I Call Music! Pride [16bit / 44.1kHz]]]></title>
                <link><![CDATA[https://sharemania.us/threads/various-artists-now-thats-what-i-call-music-pride-16bit-44-1khz.246131/]]></link>
                <description><![CDATA[<article>
<blockquote class="messageText SelectQuoteContainer ugc baseHtml">
<div class="bbCodeBlock bbCodeVfcHH HiddenContent">
<div class="attribution type">Hidden Content:</div>
<blockquote>You must reply before you can see the hidden data contained here.</blockquote>
</div>
<div class="messageTextEndMarker">&nbsp;</div>
</blockquote>
</article>]]></description>
                <author><![CDATA[Pools]]></author>
                </item>

                
                <item>
                <title><![CDATA[【HD Live Performances】WEB-DL - Miley Cyrus - ATTENTION Tour Movie [Extended] 2160p Dolby Digital Plus (5.1)]]></title>
                <link><![CDATA[https://sharemania.us/threads/miley-cyrus-attention-tour-movie-extended-2160p-dolby-digital-plus-5-1.246132/]]></link>
                <description><![CDATA[<article>
<blockquote class="messageText SelectQuoteContainer ugc baseHtml">
<div style="text-align: center"><img src="https://i.imgur.com/Wx1H0Du.png" class="bbCodeImage LbImage" alt="[​IMG]" data-url="https://i.imgur.com/Wx1H0Du.png" style="">​</div><br>
<div style="text-align: center"><b><span style="font-family: 'Georgia'"><span style="font-size: 18px">The extended version has arrived! </span></span></b>​</div><br>
05 songs have been added.<br>
Fixed some translations in the subtitles, but the bug when displaying subtitles is still present.<br>
Added Colombia location to play Angels Like You song.<br>
<br>
<b>Text reference from normal version: - Link: <a href="https://sharemania.us/threads/miley-cyrus-attention-tour-movie-2160p-dolby-digital-plus-5-1.244053/" class="internalLink">WEB-DL - Miley Cyrus - ATTENTION Tour Movie 2160p Dolby Digital Plus (5.1) | ShareMania.US</a></b><br>
<br>
"Hello everyone, today I'm posting this movie made by not so secret lab and me about Miley Cyrus ATTENTION tour. For those who want to see it again with different perspectives from each country.<br>
<br>
<b>What does this movie contain?</b><br>
<br>
4 locations (Argentina, Brazil, Chile and Los Angeles)<br>
Dolby Atmos sound (5.1) extracted from TIDAL and synchronized with the video.<br>
English and Spanish subtitles<br>
<br>
<b>Some highlights.</b><br>
<br>
Due to the fact that the audio was recorded in only one location, the synchronization with the video is not 100% correct, we apologize for that.<br>
In some moments a black screen may appear, this is due to the fact that from that moment on, the audio and video are no longer synchronized and it looks bad for the viewer.<br>
Edge Of Midnight was replaced by Midnight Sky (recorded in Argentina) by request of a person. The audio is moderately bad, even though we have improved and modified it so that it can be played in a 5.1 audio system.<br>
The subtitles may have problems when displayed on screen, we have not been able to correct that<br>
<br>
I hope I am not bothering anyone with this and if this movie is published elsewhere, please give credit to the authors."<br>
<br>
<div class="ToggleTriggerAnchor bbCodeSpoilerContainer">
<button type="button" class="button bbCodeSpoilerButton ToggleTrigger Tooltip JsOnly" data-target="> .SpoilerTarget"><span>Spoiler: <span class="SpoilerTitle">MediaInfo</span></span></button>
<div class="SpoilerTarget bbCodeSpoilerText">Format : Matroska<br>
Format version : Version 4<br>
File size : 9.05 GiB<br>
Duration : 1 h 33 min<br>
Overall bit rate : 13.9 Mb/s<br>
Frame rate : 30.000 FPS<br>
Encoded date : 2024-06-04 05:02:38 UTC<br>
<br>
Video<br>
ID : 1<br>
Format : AVC<br>
Format/Info : Advanced Video Codec<br>
Format profile : High@L4.1<br>
Format settings : CABAC / 4 Ref Frames<br>
Format settings, CABAC : Yes<br>
Format settings, Reference : 4 frames<br>
Codec ID : V_MPEG4/ISO/AVC<br>
Duration : 1 h 33 min<br>
Bit rate : 12.7 Mb/s<br>
Width : 3 840 pixels<br>
Height : 2 160 pixels<br>
Display aspect ratio : 16:9<br>
Frame rate mode : Variable<br>
Frame rate : 30.000 FPS<br>
Color space : YUV<br>
Chroma subsampling : 4:2:0<br>
Bit depth : 8 bits<br>
Scan type : Progressive<br>
Bits/(Pixel*Frame) : 0.051<br>
Stream size : 8.30 GiB (92%)<br>
Writing library : x264 core 144<br>
<br>
Audio #1<br>
ID : 2<br>
Format : E-AC-3<br>
Format/Info : Enhanced AC-3<br>
Commercial name : Dolby Digital Plus<br>
Codec ID : A_EAC3<br>
Duration : 1 h 33 min<br>
Bit rate mode : Constant<br>
Bit rate : 576 kb/s<br>
Channel(s) : 6 channels<br>
Channel layout : L R C LFE Ls Rs<br>
Sampling rate : 48.0 kHz<br>
Frame rate : 31.250 FPS (1536 SPF)<br>
Compression mode : Lossy<br>
Stream size : 385 MiB (4%)<br>
Title : Surround 5.1<br>
Language : English<br>
Service kind : Complete Main<br>
Default : Yes<br>
Forced : No<br>
<br>
Audio #2<br>
ID : 3<br>
Format : E-AC-3<br>
Format/Info : Enhanced AC-3<br>
Commercial name : Dolby Digital Plus<br>
Codec ID : A_EAC3<br>
Duration : 1 h 33 min<br>
Bit rate mode : Constant<br>
Bit rate : 576 kb/s<br>
Channel(s) : 2 channels<br>
Channel layout : L R<br>
Sampling rate : 48.0 kHz<br>
Frame rate : 31.250 FPS (1536 SPF)<br>
Compression mode : Lossy<br>
Stream size : 385 MiB (4%)<br>
Title : Stereo 2.0<br>
Language : English<br>
Service kind : Complete Main<br>
Default : No<br>
Forced : No<br>
<br>
Text #1<br>
ID : 4<br>
Format : UTF-8<br>
Codec ID : S_TEXT/UTF8<br>
Codec ID/Info : UTF-8 Plain Text<br>
Duration : 1 h 32 min<br>
Bit rate : 65 b/s<br>
Frame rate : 0.228 FPS<br>
Count of elements : 1265<br>
Stream size : 44.3 KiB (0%)<br>
Title : English<br>
Language : English<br>
Default : Yes<br>
Forced : No<br>
<br>
Text #2<br>
ID : 5<br>
Format : UTF-8<br>
Codec ID : S_TEXT/UTF8<br>
Codec ID/Info : UTF-8 Plain Text<br>
Duration : 1 h 32 min<br>
Bit rate : 69 b/s<br>
Frame rate : 0.229 FPS<br>
Count of elements : 1267<br>
Stream size : 47.1 KiB (0%)<br>
Title : Spanish<br>
Language : Spanish<br>
Default : Yes<br>
Forced : No</div>
</div><br>
<div style="text-align: center"><b>Download<br>
<div class="bbCodeBlock bbCodeVfcHH HiddenContent">
<div class="attribution type">Hidden Content:</div>
<blockquote>You must reply before you can see the hidden data contained here.</blockquote>
</div></b>​</div>
<div class="messageTextEndMarker">&nbsp;</div>
</blockquote>
</article>]]></description>
                <author><![CDATA[narxerino]]></author>
                </item>

                </channel></rss>